# xmcd
# 
# Track frame offsets:
#     150
#     18906
#     54101
#     67696
# 
# Disc length: 1133
# 
# Revision: 0
# Processed by: cddbd v1.5.2PL0 Copyright (c) Steve Scherf et al.
# Submitted via: fre:ac v1.0.17
# 
DISCID=20046b04
DTITLE=Velvet Cry - Visions Of Tomorrow
DYEAR=1996
DGENRE=Rock
TTITLE0=Rise And Fall
TTITLE1=Silvermoon
TTITLE2=Dancing Smoke
TTITLE3=Out Of Illusion
EXTD=
EXTT0=
EXTT1=
EXTT2=
EXTT3=
PLAYORDER=
